<mxfile host="app.diagrams.net" agent="Mozilla/5.0 (Windows NT 10.0; Win64; x64) AppleWebKit/537.36 (KHTML, like Gecko) Chrome/133.0.0.0 Safari/537.36" version="26.0.16">
  <diagram id="C5RBs43oDa-KdzZeNtuy" name="Page-1">
    <mxGraphModel dx="2567" dy="568" grid="1" gridSize="10" guides="1" tooltips="1" connect="1" arrows="1" fold="1" page="1" pageScale="1" pageWidth="827" pageHeight="1169" math="0" shadow="0">
      <root>
        <mxCell id="WIyWlLk6GJQsqaUBKTNV-0" />
        <mxCell id="WIyWlLk6GJQsqaUBKTNV-1" parent="WIyWlLk6GJQsqaUBKTNV-0" />
        <mxCell id="WIyWlLk6GJQsqaUBKTNV-2" value="" style="rounded=0;html=1;jettySize=auto;orthogonalLoop=1;fontSize=11;endArrow=block;endFill=0;endSize=8;strokeWidth=1;shadow=0;labelBackgroundColor=none;edgeStyle=orthogonalEdgeStyle;" parent="WIyWlLk6GJQsqaUBKTNV-1" source="WIyWlLk6GJQsqaUBKTNV-3" target="WIyWlLk6GJQsqaUBKTNV-6" edge="1">
          <mxGeometry relative="1" as="geometry" />
        </mxCell>
        <mxCell id="nMALikNBXAmiTvmjZxbv-22" value="user turn" style="edgeLabel;html=1;align=center;verticalAlign=middle;resizable=0;points=[];" vertex="1" connectable="0" parent="WIyWlLk6GJQsqaUBKTNV-2">
          <mxGeometry x="-0.5025" relative="1" as="geometry">
            <mxPoint as="offset" />
          </mxGeometry>
        </mxCell>
        <mxCell id="WIyWlLk6GJQsqaUBKTNV-3" value="start&lt;br&gt;(computer and i get each one card from deck, both are visible)&lt;div&gt;&lt;br&gt;&lt;/div&gt;" style="rounded=1;whiteSpace=wrap;html=1;fontSize=12;glass=0;strokeWidth=1;shadow=0;" parent="WIyWlLk6GJQsqaUBKTNV-1" vertex="1">
          <mxGeometry x="50" y="20" width="180" height="70" as="geometry" />
        </mxCell>
        <mxCell id="WIyWlLk6GJQsqaUBKTNV-5" value="No" style="edgeStyle=orthogonalEdgeStyle;rounded=0;html=1;jettySize=auto;orthogonalLoop=1;fontSize=11;endArrow=block;endFill=0;endSize=8;strokeWidth=1;shadow=0;labelBackgroundColor=none;entryX=0;entryY=0.5;entryDx=0;entryDy=0;exitX=1;exitY=0.5;exitDx=0;exitDy=0;" parent="WIyWlLk6GJQsqaUBKTNV-1" source="WIyWlLk6GJQsqaUBKTNV-6" target="nMALikNBXAmiTvmjZxbv-10" edge="1">
          <mxGeometry y="10" relative="1" as="geometry">
            <mxPoint as="offset" />
            <mxPoint x="590" y="210" as="targetPoint" />
          </mxGeometry>
        </mxCell>
        <mxCell id="nMALikNBXAmiTvmjZxbv-13" style="edgeStyle=orthogonalEdgeStyle;rounded=0;orthogonalLoop=1;jettySize=auto;html=1;" edge="1" parent="WIyWlLk6GJQsqaUBKTNV-1" source="WIyWlLk6GJQsqaUBKTNV-6" target="nMALikNBXAmiTvmjZxbv-12">
          <mxGeometry relative="1" as="geometry" />
        </mxCell>
        <mxCell id="nMALikNBXAmiTvmjZxbv-14" value="yes" style="edgeLabel;html=1;align=center;verticalAlign=middle;resizable=0;points=[];" vertex="1" connectable="0" parent="nMALikNBXAmiTvmjZxbv-13">
          <mxGeometry x="0.0379" y="3" relative="1" as="geometry">
            <mxPoint as="offset" />
          </mxGeometry>
        </mxCell>
        <mxCell id="WIyWlLk6GJQsqaUBKTNV-6" value="want to draw one more card" style="rhombus;whiteSpace=wrap;html=1;shadow=0;fontFamily=Helvetica;fontSize=12;align=center;strokeWidth=1;spacing=6;spacingTop=-4;" parent="WIyWlLk6GJQsqaUBKTNV-1" vertex="1">
          <mxGeometry x="420" y="170" width="100" height="90" as="geometry" />
        </mxCell>
        <mxCell id="nMALikNBXAmiTvmjZxbv-20" style="edgeStyle=orthogonalEdgeStyle;rounded=0;orthogonalLoop=1;jettySize=auto;html=1;entryX=1;entryY=0.5;entryDx=0;entryDy=0;" edge="1" parent="WIyWlLk6GJQsqaUBKTNV-1" source="nMALikNBXAmiTvmjZxbv-1" target="nMALikNBXAmiTvmjZxbv-12">
          <mxGeometry relative="1" as="geometry" />
        </mxCell>
        <mxCell id="nMALikNBXAmiTvmjZxbv-1" value="you must drow another card" style="rounded=1;whiteSpace=wrap;html=1;fontSize=12;glass=0;strokeWidth=1;shadow=0;" vertex="1" parent="WIyWlLk6GJQsqaUBKTNV-1">
          <mxGeometry x="740" y="450" width="120" height="40" as="geometry" />
        </mxCell>
        <mxCell id="nMALikNBXAmiTvmjZxbv-16" style="edgeStyle=orthogonalEdgeStyle;rounded=0;orthogonalLoop=1;jettySize=auto;html=1;entryX=0;entryY=0.5;entryDx=0;entryDy=0;" edge="1" parent="WIyWlLk6GJQsqaUBKTNV-1" source="nMALikNBXAmiTvmjZxbv-5" target="nMALikNBXAmiTvmjZxbv-6">
          <mxGeometry relative="1" as="geometry" />
        </mxCell>
        <mxCell id="nMALikNBXAmiTvmjZxbv-18" value="no" style="edgeLabel;html=1;align=center;verticalAlign=middle;resizable=0;points=[];" vertex="1" connectable="0" parent="nMALikNBXAmiTvmjZxbv-16">
          <mxGeometry x="0.192" y="-2" relative="1" as="geometry">
            <mxPoint as="offset" />
          </mxGeometry>
        </mxCell>
        <mxCell id="nMALikNBXAmiTvmjZxbv-17" value="" style="edgeStyle=orthogonalEdgeStyle;rounded=0;orthogonalLoop=1;jettySize=auto;html=1;" edge="1" parent="WIyWlLk6GJQsqaUBKTNV-1" source="nMALikNBXAmiTvmjZxbv-5" target="nMALikNBXAmiTvmjZxbv-1">
          <mxGeometry relative="1" as="geometry" />
        </mxCell>
        <mxCell id="nMALikNBXAmiTvmjZxbv-19" value="yes" style="edgeLabel;html=1;align=center;verticalAlign=middle;resizable=0;points=[];" vertex="1" connectable="0" parent="nMALikNBXAmiTvmjZxbv-17">
          <mxGeometry x="-0.308" y="2" relative="1" as="geometry">
            <mxPoint as="offset" />
          </mxGeometry>
        </mxCell>
        <mxCell id="nMALikNBXAmiTvmjZxbv-5" value="score &amp;lt; 17" style="rhombus;whiteSpace=wrap;html=1;shadow=0;fontFamily=Helvetica;fontSize=12;align=center;strokeWidth=1;spacing=6;spacingTop=-4;" vertex="1" parent="WIyWlLk6GJQsqaUBKTNV-1">
          <mxGeometry x="750" y="260" width="100" height="80" as="geometry" />
        </mxCell>
        <mxCell id="nMALikNBXAmiTvmjZxbv-61" style="edgeStyle=orthogonalEdgeStyle;rounded=0;orthogonalLoop=1;jettySize=auto;html=1;" edge="1" parent="WIyWlLk6GJQsqaUBKTNV-1" source="nMALikNBXAmiTvmjZxbv-6">
          <mxGeometry relative="1" as="geometry">
            <mxPoint x="1000" y="490" as="targetPoint" />
          </mxGeometry>
        </mxCell>
        <mxCell id="nMALikNBXAmiTvmjZxbv-62" value="no" style="edgeLabel;html=1;align=center;verticalAlign=middle;resizable=0;points=[];" vertex="1" connectable="0" parent="nMALikNBXAmiTvmjZxbv-61">
          <mxGeometry x="-0.0053" y="-2" relative="1" as="geometry">
            <mxPoint x="-1" y="-2" as="offset" />
          </mxGeometry>
        </mxCell>
        <mxCell id="nMALikNBXAmiTvmjZxbv-6" value="score &amp;gt;21" style="rhombus;whiteSpace=wrap;html=1;shadow=0;fontFamily=Helvetica;fontSize=12;align=center;strokeWidth=1;spacing=6;spacingTop=-4;" vertex="1" parent="WIyWlLk6GJQsqaUBKTNV-1">
          <mxGeometry x="950" y="260" width="100" height="80" as="geometry" />
        </mxCell>
        <mxCell id="nMALikNBXAmiTvmjZxbv-7" value="" style="endArrow=classic;html=1;rounded=0;exitX=1;exitY=0.5;exitDx=0;exitDy=0;entryX=0;entryY=0.5;entryDx=0;entryDy=0;" edge="1" parent="WIyWlLk6GJQsqaUBKTNV-1" source="nMALikNBXAmiTvmjZxbv-6" target="nMALikNBXAmiTvmjZxbv-9">
          <mxGeometry width="50" height="50" relative="1" as="geometry">
            <mxPoint x="690" y="330" as="sourcePoint" />
            <mxPoint x="900" y="330" as="targetPoint" />
          </mxGeometry>
        </mxCell>
        <mxCell id="nMALikNBXAmiTvmjZxbv-8" value="yes" style="edgeLabel;html=1;align=center;verticalAlign=middle;resizable=0;points=[];" vertex="1" connectable="0" parent="nMALikNBXAmiTvmjZxbv-7">
          <mxGeometry x="-0.036" y="-1" relative="1" as="geometry">
            <mxPoint as="offset" />
          </mxGeometry>
        </mxCell>
        <mxCell id="nMALikNBXAmiTvmjZxbv-9" value="game over, you loose" style="rounded=1;whiteSpace=wrap;html=1;fontSize=12;glass=0;strokeWidth=1;shadow=0;" vertex="1" parent="WIyWlLk6GJQsqaUBKTNV-1">
          <mxGeometry x="1170" y="280" width="120" height="40" as="geometry" />
        </mxCell>
        <mxCell id="nMALikNBXAmiTvmjZxbv-11" style="edgeStyle=orthogonalEdgeStyle;rounded=0;orthogonalLoop=1;jettySize=auto;html=1;entryX=0;entryY=0.5;entryDx=0;entryDy=0;" edge="1" parent="WIyWlLk6GJQsqaUBKTNV-1" target="nMALikNBXAmiTvmjZxbv-5">
          <mxGeometry relative="1" as="geometry">
            <mxPoint x="660" y="300" as="sourcePoint" />
          </mxGeometry>
        </mxCell>
        <mxCell id="nMALikNBXAmiTvmjZxbv-10" value="check score" style="rounded=1;whiteSpace=wrap;html=1;fontSize=12;glass=0;strokeWidth=1;shadow=0;" vertex="1" parent="WIyWlLk6GJQsqaUBKTNV-1">
          <mxGeometry x="570" y="280" width="90" height="40" as="geometry" />
        </mxCell>
        <mxCell id="nMALikNBXAmiTvmjZxbv-99" value="" style="edgeStyle=orthogonalEdgeStyle;rounded=0;orthogonalLoop=1;jettySize=auto;html=1;entryX=0;entryY=0.5;entryDx=0;entryDy=0;" edge="1" parent="WIyWlLk6GJQsqaUBKTNV-1" source="nMALikNBXAmiTvmjZxbv-12" target="WIyWlLk6GJQsqaUBKTNV-6">
          <mxGeometry relative="1" as="geometry">
            <mxPoint x="270.00000000000045" y="390" as="targetPoint" />
            <Array as="points">
              <mxPoint x="270" y="470" />
              <mxPoint x="270" y="215" />
            </Array>
          </mxGeometry>
        </mxCell>
        <mxCell id="nMALikNBXAmiTvmjZxbv-12" value="draw a card" style="rounded=1;whiteSpace=wrap;html=1;fontSize=12;glass=0;strokeWidth=1;shadow=0;" vertex="1" parent="WIyWlLk6GJQsqaUBKTNV-1">
          <mxGeometry x="425" y="450" width="90" height="40" as="geometry" />
        </mxCell>
        <mxCell id="nMALikNBXAmiTvmjZxbv-55" style="edgeStyle=orthogonalEdgeStyle;rounded=0;orthogonalLoop=1;jettySize=auto;html=1;entryX=1;entryY=0.5;entryDx=0;entryDy=0;exitX=0;exitY=0.5;exitDx=0;exitDy=0;" edge="1" parent="WIyWlLk6GJQsqaUBKTNV-1" source="nMALikNBXAmiTvmjZxbv-40" target="nMALikNBXAmiTvmjZxbv-35">
          <mxGeometry relative="1" as="geometry">
            <mxPoint x="-710" y="270" as="sourcePoint" />
          </mxGeometry>
        </mxCell>
        <mxCell id="nMALikNBXAmiTvmjZxbv-56" style="edgeStyle=orthogonalEdgeStyle;rounded=0;orthogonalLoop=1;jettySize=auto;html=1;entryX=1;entryY=0.5;entryDx=0;entryDy=0;" edge="1" parent="WIyWlLk6GJQsqaUBKTNV-1" source="nMALikNBXAmiTvmjZxbv-35" target="nMALikNBXAmiTvmjZxbv-38">
          <mxGeometry relative="1" as="geometry" />
        </mxCell>
        <mxCell id="nMALikNBXAmiTvmjZxbv-81" value="yes" style="edgeLabel;html=1;align=center;verticalAlign=middle;resizable=0;points=[];" vertex="1" connectable="0" parent="nMALikNBXAmiTvmjZxbv-56">
          <mxGeometry x="-0.0738" y="-5" relative="1" as="geometry">
            <mxPoint as="offset" />
          </mxGeometry>
        </mxCell>
        <mxCell id="nMALikNBXAmiTvmjZxbv-82" style="edgeStyle=orthogonalEdgeStyle;rounded=0;orthogonalLoop=1;jettySize=auto;html=1;entryX=0.5;entryY=0;entryDx=0;entryDy=0;" edge="1" parent="WIyWlLk6GJQsqaUBKTNV-1" source="nMALikNBXAmiTvmjZxbv-35" target="nMALikNBXAmiTvmjZxbv-79">
          <mxGeometry relative="1" as="geometry" />
        </mxCell>
        <mxCell id="nMALikNBXAmiTvmjZxbv-83" value="no" style="edgeLabel;html=1;align=center;verticalAlign=middle;resizable=0;points=[];" vertex="1" connectable="0" parent="nMALikNBXAmiTvmjZxbv-82">
          <mxGeometry x="-0.0644" y="2" relative="1" as="geometry">
            <mxPoint as="offset" />
          </mxGeometry>
        </mxCell>
        <mxCell id="nMALikNBXAmiTvmjZxbv-35" value="score &amp;gt; 21" style="rhombus;whiteSpace=wrap;html=1;shadow=0;fontFamily=Helvetica;fontSize=12;align=center;strokeWidth=1;spacing=6;spacingTop=-4;" vertex="1" parent="WIyWlLk6GJQsqaUBKTNV-1">
          <mxGeometry x="-940" y="230" width="90" height="80" as="geometry" />
        </mxCell>
        <mxCell id="nMALikNBXAmiTvmjZxbv-38" value="game over, you loose" style="rounded=1;whiteSpace=wrap;html=1;fontSize=12;glass=0;strokeWidth=1;shadow=0;" vertex="1" parent="WIyWlLk6GJQsqaUBKTNV-1">
          <mxGeometry x="-1210" y="250" width="120" height="40" as="geometry" />
        </mxCell>
        <mxCell id="nMALikNBXAmiTvmjZxbv-40" value="check score" style="rounded=1;whiteSpace=wrap;html=1;fontSize=12;glass=0;strokeWidth=1;shadow=0;" vertex="1" parent="WIyWlLk6GJQsqaUBKTNV-1">
          <mxGeometry x="-480" y="250" width="90" height="40" as="geometry" />
        </mxCell>
        <mxCell id="nMALikNBXAmiTvmjZxbv-105" style="edgeStyle=orthogonalEdgeStyle;rounded=0;orthogonalLoop=1;jettySize=auto;html=1;entryX=1;entryY=0.5;entryDx=0;entryDy=0;" edge="1" parent="WIyWlLk6GJQsqaUBKTNV-1" source="nMALikNBXAmiTvmjZxbv-41" target="nMALikNBXAmiTvmjZxbv-40">
          <mxGeometry relative="1" as="geometry" />
        </mxCell>
        <mxCell id="nMALikNBXAmiTvmjZxbv-41" value="computer drows as much cards as user" style="rounded=1;whiteSpace=wrap;html=1;fontSize=12;glass=0;strokeWidth=1;shadow=0;" vertex="1" parent="WIyWlLk6GJQsqaUBKTNV-1">
          <mxGeometry x="-175" y="250" width="90" height="40" as="geometry" />
        </mxCell>
        <mxCell id="nMALikNBXAmiTvmjZxbv-65" style="edgeStyle=orthogonalEdgeStyle;rounded=0;orthogonalLoop=1;jettySize=auto;html=1;" edge="1" parent="WIyWlLk6GJQsqaUBKTNV-1" source="nMALikNBXAmiTvmjZxbv-64">
          <mxGeometry relative="1" as="geometry">
            <mxPoint x="1160" y="530" as="targetPoint" />
          </mxGeometry>
        </mxCell>
        <mxCell id="nMALikNBXAmiTvmjZxbv-67" value="yes" style="edgeLabel;html=1;align=center;verticalAlign=middle;resizable=0;points=[];" vertex="1" connectable="0" parent="nMALikNBXAmiTvmjZxbv-65">
          <mxGeometry x="-0.1248" y="2" relative="1" as="geometry">
            <mxPoint as="offset" />
          </mxGeometry>
        </mxCell>
        <mxCell id="nMALikNBXAmiTvmjZxbv-69" style="edgeStyle=orthogonalEdgeStyle;rounded=0;orthogonalLoop=1;jettySize=auto;html=1;entryX=0.5;entryY=1;entryDx=0;entryDy=0;" edge="1" parent="WIyWlLk6GJQsqaUBKTNV-1" source="nMALikNBXAmiTvmjZxbv-64" target="nMALikNBXAmiTvmjZxbv-41">
          <mxGeometry relative="1" as="geometry">
            <mxPoint x="-70" y="480" as="targetPoint" />
            <Array as="points">
              <mxPoint x="-130" y="510" />
            </Array>
          </mxGeometry>
        </mxCell>
        <mxCell id="nMALikNBXAmiTvmjZxbv-70" value="no" style="edgeLabel;html=1;align=center;verticalAlign=middle;resizable=0;points=[];" vertex="1" connectable="0" parent="nMALikNBXAmiTvmjZxbv-69">
          <mxGeometry x="-0.0919" y="2" relative="1" as="geometry">
            <mxPoint as="offset" />
          </mxGeometry>
        </mxCell>
        <mxCell id="nMALikNBXAmiTvmjZxbv-64" value="score==21" style="rhombus;whiteSpace=wrap;html=1;shadow=0;fontFamily=Helvetica;fontSize=12;align=center;strokeWidth=1;spacing=6;spacingTop=-4;" vertex="1" parent="WIyWlLk6GJQsqaUBKTNV-1">
          <mxGeometry x="950" y="490" width="100" height="80" as="geometry" />
        </mxCell>
        <mxCell id="nMALikNBXAmiTvmjZxbv-66" value="Blackjack, you win" style="rounded=1;whiteSpace=wrap;html=1;fontSize=12;glass=0;strokeWidth=1;shadow=0;" vertex="1" parent="WIyWlLk6GJQsqaUBKTNV-1">
          <mxGeometry x="1160" y="510" width="120" height="40" as="geometry" />
        </mxCell>
        <mxCell id="nMALikNBXAmiTvmjZxbv-95" style="edgeStyle=orthogonalEdgeStyle;rounded=0;orthogonalLoop=1;jettySize=auto;html=1;entryX=0.5;entryY=0;entryDx=0;entryDy=0;" edge="1" parent="WIyWlLk6GJQsqaUBKTNV-1" source="nMALikNBXAmiTvmjZxbv-72" target="nMALikNBXAmiTvmjZxbv-89">
          <mxGeometry relative="1" as="geometry" />
        </mxCell>
        <mxCell id="nMALikNBXAmiTvmjZxbv-96" style="edgeStyle=orthogonalEdgeStyle;rounded=0;orthogonalLoop=1;jettySize=auto;html=1;" edge="1" parent="WIyWlLk6GJQsqaUBKTNV-1" source="nMALikNBXAmiTvmjZxbv-72" target="nMALikNBXAmiTvmjZxbv-90">
          <mxGeometry relative="1" as="geometry" />
        </mxCell>
        <mxCell id="nMALikNBXAmiTvmjZxbv-97" style="edgeStyle=orthogonalEdgeStyle;rounded=0;orthogonalLoop=1;jettySize=auto;html=1;entryX=0.5;entryY=0;entryDx=0;entryDy=0;" edge="1" parent="WIyWlLk6GJQsqaUBKTNV-1" source="nMALikNBXAmiTvmjZxbv-72" target="nMALikNBXAmiTvmjZxbv-87">
          <mxGeometry relative="1" as="geometry" />
        </mxCell>
        <mxCell id="nMALikNBXAmiTvmjZxbv-72" value="show computer score, show user score and decide" style="rounded=1;whiteSpace=wrap;html=1;fontSize=12;glass=0;strokeWidth=1;shadow=0;" vertex="1" parent="WIyWlLk6GJQsqaUBKTNV-1">
          <mxGeometry x="-30" y="760" width="135" height="60" as="geometry" />
        </mxCell>
        <mxCell id="nMALikNBXAmiTvmjZxbv-77" style="edgeStyle=orthogonalEdgeStyle;rounded=0;orthogonalLoop=1;jettySize=auto;html=1;" edge="1" parent="WIyWlLk6GJQsqaUBKTNV-1" source="nMALikNBXAmiTvmjZxbv-79" target="nMALikNBXAmiTvmjZxbv-80">
          <mxGeometry relative="1" as="geometry">
            <mxPoint x="-1170" y="420" as="targetPoint" />
          </mxGeometry>
        </mxCell>
        <mxCell id="nMALikNBXAmiTvmjZxbv-78" value="yes" style="edgeLabel;html=1;align=center;verticalAlign=middle;resizable=0;points=[];" vertex="1" connectable="0" parent="nMALikNBXAmiTvmjZxbv-77">
          <mxGeometry x="-0.1248" y="2" relative="1" as="geometry">
            <mxPoint as="offset" />
          </mxGeometry>
        </mxCell>
        <mxCell id="nMALikNBXAmiTvmjZxbv-84" style="edgeStyle=orthogonalEdgeStyle;rounded=0;orthogonalLoop=1;jettySize=auto;html=1;entryX=0.25;entryY=0;entryDx=0;entryDy=0;" edge="1" parent="WIyWlLk6GJQsqaUBKTNV-1" source="nMALikNBXAmiTvmjZxbv-79" target="nMALikNBXAmiTvmjZxbv-72">
          <mxGeometry relative="1" as="geometry">
            <mxPoint x="-895" y="550" as="targetPoint" />
            <Array as="points">
              <mxPoint x="-895" y="530" />
              <mxPoint x="4" y="530" />
            </Array>
          </mxGeometry>
        </mxCell>
        <mxCell id="nMALikNBXAmiTvmjZxbv-85" value="no" style="edgeLabel;html=1;align=center;verticalAlign=middle;resizable=0;points=[];" vertex="1" connectable="0" parent="nMALikNBXAmiTvmjZxbv-84">
          <mxGeometry x="-0.0685" y="-4" relative="1" as="geometry">
            <mxPoint as="offset" />
          </mxGeometry>
        </mxCell>
        <mxCell id="nMALikNBXAmiTvmjZxbv-79" value="score==21" style="rhombus;whiteSpace=wrap;html=1;shadow=0;fontFamily=Helvetica;fontSize=12;align=center;strokeWidth=1;spacing=6;spacingTop=-4;" vertex="1" parent="WIyWlLk6GJQsqaUBKTNV-1">
          <mxGeometry x="-945" y="370" width="100" height="80" as="geometry" />
        </mxCell>
        <mxCell id="nMALikNBXAmiTvmjZxbv-80" value="Blackjack, you win" style="rounded=1;whiteSpace=wrap;html=1;fontSize=12;glass=0;strokeWidth=1;shadow=0;" vertex="1" parent="WIyWlLk6GJQsqaUBKTNV-1">
          <mxGeometry x="-1330" y="390" width="120" height="40" as="geometry" />
        </mxCell>
        <mxCell id="nMALikNBXAmiTvmjZxbv-101" value="" style="edgeStyle=orthogonalEdgeStyle;rounded=0;orthogonalLoop=1;jettySize=auto;html=1;" edge="1" parent="WIyWlLk6GJQsqaUBKTNV-1" source="nMALikNBXAmiTvmjZxbv-87" target="nMALikNBXAmiTvmjZxbv-91">
          <mxGeometry relative="1" as="geometry" />
        </mxCell>
        <mxCell id="nMALikNBXAmiTvmjZxbv-87" value="computer score == user_score" style="rhombus;whiteSpace=wrap;html=1;" vertex="1" parent="WIyWlLk6GJQsqaUBKTNV-1">
          <mxGeometry x="-57.5" y="890" width="190" height="150" as="geometry" />
        </mxCell>
        <mxCell id="nMALikNBXAmiTvmjZxbv-102" value="" style="edgeStyle=orthogonalEdgeStyle;rounded=0;orthogonalLoop=1;jettySize=auto;html=1;" edge="1" parent="WIyWlLk6GJQsqaUBKTNV-1" source="nMALikNBXAmiTvmjZxbv-89" target="nMALikNBXAmiTvmjZxbv-92">
          <mxGeometry relative="1" as="geometry" />
        </mxCell>
        <mxCell id="nMALikNBXAmiTvmjZxbv-89" value="computer score &amp;gt; user_score" style="rhombus;whiteSpace=wrap;html=1;" vertex="1" parent="WIyWlLk6GJQsqaUBKTNV-1">
          <mxGeometry x="-330" y="890" width="190" height="150" as="geometry" />
        </mxCell>
        <mxCell id="nMALikNBXAmiTvmjZxbv-103" value="" style="edgeStyle=orthogonalEdgeStyle;rounded=0;orthogonalLoop=1;jettySize=auto;html=1;" edge="1" parent="WIyWlLk6GJQsqaUBKTNV-1" source="nMALikNBXAmiTvmjZxbv-90" target="nMALikNBXAmiTvmjZxbv-93">
          <mxGeometry relative="1" as="geometry" />
        </mxCell>
        <mxCell id="nMALikNBXAmiTvmjZxbv-90" value="computer score == user_score" style="rhombus;whiteSpace=wrap;html=1;" vertex="1" parent="WIyWlLk6GJQsqaUBKTNV-1">
          <mxGeometry x="210" y="890" width="190" height="150" as="geometry" />
        </mxCell>
        <mxCell id="nMALikNBXAmiTvmjZxbv-91" value="draw" style="rounded=1;whiteSpace=wrap;html=1;" vertex="1" parent="WIyWlLk6GJQsqaUBKTNV-1">
          <mxGeometry x="-22.5" y="1090" width="120" height="60" as="geometry" />
        </mxCell>
        <mxCell id="nMALikNBXAmiTvmjZxbv-92" value="loose" style="rounded=1;whiteSpace=wrap;html=1;" vertex="1" parent="WIyWlLk6GJQsqaUBKTNV-1">
          <mxGeometry x="-295" y="1090" width="120" height="60" as="geometry" />
        </mxCell>
        <mxCell id="nMALikNBXAmiTvmjZxbv-93" value="win" style="rounded=1;whiteSpace=wrap;html=1;" vertex="1" parent="WIyWlLk6GJQsqaUBKTNV-1">
          <mxGeometry x="245" y="1090" width="120" height="60" as="geometry" />
        </mxCell>
        <mxCell id="nMALikNBXAmiTvmjZxbv-100" value="show card to user" style="rounded=1;whiteSpace=wrap;html=1;" vertex="1" parent="WIyWlLk6GJQsqaUBKTNV-1">
          <mxGeometry x="210" y="330" width="120" height="60" as="geometry" />
        </mxCell>
      </root>
    </mxGraphModel>
  </diagram>
</mxfile>
